<?xml version="1.0" encoding="UTF-8"?>
<svg width="530" height="110" viewBox="0 0 530 110" fill="none" xmlns="http://www.w3.org/2000/svg">
<g clip-path="url(#clip0_3120_24159)">
<path fill-rule="evenodd" clip-rule="evenodd" d="M6.0783 79.7759C15.1089 97.837 19.6241 72.8589 19.0477 54.3174C3.86869 59.4091 0.986595 65.9418 2.52371 71.1296C2.52371 71.1296 2.52371 71.3218 2.61978 71.3218C3.48441 74.2999 4.63725 77.086 6.0783 79.7759Z" fill="#FCB622"/>
<path fill-rule="evenodd" clip-rule="evenodd" d="M68.2357 108.405C79.2838 105.619 89.0829 99.5663 96.4803 91.0161C89.179 98.9899 81.9737 95.6275 70.6375 90.3436C68.7161 89.3829 66.8908 88.5183 64.7772 87.5576C59.4934 85.348 53.8253 83.7148 48.1571 83.0423C27.31 79.9681 -0.0699482 91.6886 35.2838 106.387C45.8515 110.422 57.2838 111.095 68.2357 108.405Z" fill="#FCB622"/>
<path fill-rule="evenodd" clip-rule="evenodd" d="M2.52378 71.2255C0.986663 66.0378 3.86876 59.505 19.0478 54.3172C65.5456 38.1775 52.384 -10.9142 23.3709 9.45262C12.8993 16.7539 6.36658 26.5531 2.81199 37.505C-0.838664 48.457 -0.934734 60.1775 2.52378 71.2255Z" fill="#FB1E45"/>
<path fill-rule="evenodd" clip-rule="evenodd" d="M96.4799 91.016C104.838 81.313 112.524 60.9462 64.7769 87.5575C79.6677 94.2824 88.0258 100.335 96.4799 91.016Z" fill="#00C2FF"/>
<path fill-rule="evenodd" clip-rule="evenodd" d="M110.026 54.3173V54.1252V53.933C110.026 42.3086 106.087 31.0684 99.2663 21.7496C92.4453 12.2387 82.7423 5.32168 71.5982 1.76709C76.4977 3.68849 76.7859 11.3741 74.4803 16.9461C72.0785 23.1907 71.5982 25.2081 70.6375 29.4352C65.5458 53.4527 110.026 86.4047 110.026 54.3173Z" fill="#00C2FF"/>
<path fill-rule="evenodd" clip-rule="evenodd" d="M70.6373 29.4352C71.598 25.2081 72.1745 23.1907 74.4801 16.9461C76.7858 11.3741 76.4976 3.68847 71.598 1.76708C49.502 -5.6303 44.7945 11.4701 70.6373 29.4352Z" fill="#493AFC"/>
<path fill-rule="evenodd" clip-rule="evenodd" d="M180 70.5C187.8 70.5 195.5 66.5 195.5 59.6V58L182.7 59C175.1 59.6 171.4 61.7 171.4 65.1C171.4 69.2 175.8 70.5 180 70.5ZM184.7 29C200.2 29 211 35.6 211 51.7V80H196.5V70.8C192 77.8 185 81 175 81C164.6 81 156 76.6 156 66C156 53.8 168.7 51.2 180.6 50.1L195.5 49.1V48.4C195.5 42.4 190.6 40 184.7 40C178.2 40 174.3 41.8 173.4 45.7H159.1C159.7 33.5 171.7 29 184.7 29Z" fill="#0E0F11"/>
<path fill-rule="evenodd" clip-rule="evenodd" d="M499 70.5C506.8 70.5 514.5 66.5 514.5 59.6V58L501.7 59C494.1 59.6 490.4 61.7 490.4 65.1C490.4 69.2 494.8 70.5 499 70.5ZM503.7 29C519.2 29 530 35.6 530 51.7V80H515.5V70.8C511 77.8 504 81 494 81C483.6 81 475 76.6 475 66C475 53.8 487.7 51.2 499.6 50.1L514.5 49.1V48.4C514.5 42.4 509.6 40 503.7 40C497.2 40 493.3 41.8 492.4 45.7H478.1C478.7 33.5 490.7 29 503.7 29Z" fill="#0E0F11"/>
<path fill-rule="evenodd" clip-rule="evenodd" d="M276.5 30H259.8L245.6 71L231.9 30H215L233.9 80H257.3L276.5 30Z" fill="#0E0F11"/>
<path fill-rule="evenodd" clip-rule="evenodd" d="M309.3 40C301.1 40 296.3 43.2 294.8 50H322.6C321.8 43.1 316.3 40 309.3 40ZM338 58.1V59.9H294.7C296.2 66.9 301.2 70.5 310 70.5C315.5 70.5 319.5 68.7 322.1 65.4L337.2 66.2C333.4 77.2 322.1 81 310 81C292.1 81 279 73.7 279 54.9C279 36.5 291.9 29 309.3 29C328.9 29 338 38.3 338 58.1Z" fill="#0E0F11"/>
<path fill-rule="evenodd" clip-rule="evenodd" d="M379.8 29C393.5 29 400 37 400 50.6V80H384.3V55.4C384.3 47.3 381.9 41.5 373.8 41.5C365 41.5 360.6 47.9 360.6 56.8V80H345V30H359.6V39.7C363.6 32.5 370.3 29 379.8 29Z" fill="#0E0F11"/>
<path fill-rule="evenodd" clip-rule="evenodd" d="M438 69C446.6 69 453 63.9 453 55.3C453 47.9 447.9 41.5 438 41.5C429.3 41.5 423.3 46.7 423.3 55.3C423.3 64.5 430 69 438 69ZM452.8 38.1V30H468V73.4C468 94.1 458.8 103.5 438.1 103.5C424.2 103.5 411.5 98.7 410.6 84.9H426C427.1 89 431.1 91 438.1 91C447.4 91 451.7 86.8 451.7 77.5V72.8C447.1 78.3 441.1 81 433 81C417.9 81 407 71 407 54.7C407 38.5 418.4 29 433 29C442 29 448.4 31.9 452.8 38.1Z" fill="#0E0F11"/>
</g>
<defs>
<clipPath id="clip0_3120_24159">
<rect width="530" height="110" fill="white"/>
</clipPath>
</defs>
</svg>
