<?xml version="1.0" encoding="UTF-8" standalone="no"?>
<!DOCTYPE svg PUBLIC "-//W3C//DTD SVG 1.1//EN" "http://www.w3.org/Graphics/SVG/1.1/DTD/svg11.dtd">
<svg width="100%" height="100%" viewBox="0 0 1422 2420" version="1.1" xmlns="http://www.w3.org/2000/svg" xmlns:xlink="http://www.w3.org/1999/xlink" xml:space="preserve" xmlns:serif="http://www.serif.com/" style="fill-rule:evenodd;clip-rule:evenodd;stroke-linejoin:round;stroke-miterlimit:2;">
    <g transform="matrix(1,0,0,1,-4931,-2100)">
        <g transform="matrix(1.00392,0,0,1.00031,4532.57,233.156)">
            <path d="M1735,4207.89C1684.12,4206.06 1645.43,4191.82 1610,4177.89C1517.57,4141.54 1558.58,4156.07 1455,4121.89C1396.84,4103.06 1276.34,4114.74 1265,4116.89C1197.99,4129.57 986.512,4185.58 789,4238.89C585.435,4293.83 591.492,4287.99 541,4280.89C452.973,4268.49 391.669,4150.55 398,4147.89L398,1907C473.535,1919.58 550.025,1936.9 701,1925C849.2,1911.62 997.359,1873.72 1135,1867C1313.56,1868.36 1321.63,1889.58 1580.06,1970C1580.05,1975.13 1735.33,2014.25 1813,2023L1813,4183.89C1793.16,4209.61 1735.96,4206.68 1735,4207.89" style="fill:url(#_Linear1);"/>
        </g>
    </g>
    <defs>
        <linearGradient id="_Linear1" x1="0" y1="0" x2="1" y2="0" gradientUnits="userSpaceOnUse" gradientTransform="matrix(9.28895e-14,-1517,1776.4,1.08773e-13,1105.28,3384)"><stop offset="0" style="stop-color:rgb(27,1,160);stop-opacity:1"/><stop offset="1" style="stop-color:rgb(19,180,240);stop-opacity:1"/></linearGradient>
    </defs>
</svg>
